<?xml version="1.0" encoding="UTF-8"?>
<svg id="Layer_1" xmlns="http://www.w3.org/2000/svg" baseProfile="tiny" version="1.2" viewBox="0 0 37.3 40.3">
  <!-- Generator: Adobe Illustrator 30.3.0, SVG Export Plug-In . SVG Version: 2.1.3 Build 182)  -->
  <defs>
    <style>
      .st0 {
        fill: #fff;
      }
    </style>
  </defs>
  <path class="st0" d="M18.7,1.5C8.4,1.5,0,9.8,0,20.1s8.3,18.7,18.6,18.7,10.3-2.3,13.9-6.2c3.5-4,5.2-9.3,4.7-14.6C36.1,8.6,28.2,1.5,18.7,1.5ZM5.2,12.9c.3-.5.6-1.1,1-1.6,0-.2.2-.3.4-.3s.4.1.5.2l6.3,6.3c.9.7,2,.9,3,.5.1,0,.2-.1.2-.2.4-1,.4-2.1-.1-3l-.2-.2-6.4-6.3c0-.2-.2-.3,0-.5,0-.2.1-.3.2-.4.5-.4,1-.7,1.6-1s.5,0,.7,0l.7.7,5.4,5.4c.5.6,1.2.9,2,.9.8-.1,1,.4,1.1,1.3.2,1.7.7,3.3,1.3,4.9l.2.5c.5,1.3.7,1.6,0,2.2s-1.4,1.3-2.1,2.1c-.2.2-.4.4-.6.4s-.2,0-.3-.1c-2.3-.7-4.7-1.4-7.1-2.1-.5-.1-.7-.4-.6-.8.1-.9-.3-1.8-1-2.3l-5.4-5.4-.5-.5c-.3-.3-.4-.6-.2-.8ZM33.9,21.8c-.8,7.1-6.4,12.7-13.5,13.6-4.4.5-8.7-.9-12-3.8-3.1-3-5-7.2-5-11.6v-.9c0-.2.2-.4.4-.5h.2c.2,0,.3.1.4.2l.4.4c1.3,1.3,2.7,2.7,4,4.1.8.8,1.9,1.4,3,1.7,2.9.8,6.2,1.7,10.2,2.8l3.8,1c.1,0,.3.1.4.1.5.1,1.1-.2,1.2-.8v-.5c-1.3-5-2.7-10.2-4.2-15.4-.2-.6-.5-1.2-.9-1.6-1.5-1.5-3-3-4.5-4.6l-.5-.5c-.2-.2-.2-.4-.1-.6s.3-.4.5-.4h.9c8.5,0,15.4,7,15.3,15.5,0,.7,0,1.3,0,1.8Z"/>
</svg>