<?xml version="1.0" encoding="UTF-8"?>
<svg id="Layer_1" data-name="Layer 1" xmlns="http://www.w3.org/2000/svg" width="225" height="225" viewBox="0 0 225 225">
  <path d="M221.4,112.7c0,60.3-48.9,109.2-109.2,109.2S3.1,173,3.1,112.7,52,3.5,112.3,3.5s109.2,48.9,109.2,109.2ZM128.5,151.9c1.9,3.1,6.8,3.5,9.5,2.7,7.3-2.2,8.6-18.9,26.5-18.1s17,19.6,27,19.3,6.5-2.2,7.9-5.6c10.2-24.7,10.5-52.3-.8-76.9-16.2-35.5-53-57.1-91.5-54.8-56.9,3.4-97.4,55.3-86.6,111.3.4,1.9,3.4,4.1,5.2,4.1s4.4-1.3,5.4-3l28.9-46.1c3-4.8,9.1-7.1,14.4-6.8s9.8,3.2,12.8,7.9l41.4,65.9Z"/>
  <path d="M128.5,151.9c-5.2-8.3-10.5-16.7-15.7-25-7.6-12.1-14.8-24.5-22.8-36.2s-3-5.5-5.3-7.7-6.2-4.3-9.9-4.7c-8.1-.8-13.2,4.1-17.2,10.4s-10.3,16.5-15.5,24.7l-7.3,11.6c-2.1,3.4-4.3,8.9-9,8.9-5.7,0-6-6.6-6.5-10.8s-.8-9.5-.6-14.3c.3-9.2,2-18.4,5-27.2,5.9-17.1,16.7-32.3,31-43.4,14.8-11.5,33-18.3,51.8-19.6.2,0,.4,0,.6,0,38.5-2.3,75.3,19.3,91.5,54.8,10.2,22.4,10.9,48.1,2.9,71.3-1.3,3.7-2.8,8.3-6.5,10.3-8.1,4.5-12.2-6.2-16-11-4.1-5.3-11.5-8.1-18.1-7.3-5,.5-9.8,3.1-13.1,6.8s-5,9.7-9.9,11.2c-2.6.8-7.6.4-9.5-2.7ZM185.7,103.3c0-12.4-10.1-22.5-22.5-22.5s-22.5,10.1-22.5,22.5,10.1,22.5,22.5,22.5,22.5-10.1,22.5-22.5Z" fill="#ccea4a"/>
  <circle cx="163.2" cy="103.3" r="22.5"/>
</svg>