<svg xmlns="http://www.w3.org/2000/svg" xmlns:xlink="http://www.w3.org/1999/xlink" width="183.65" height="39.344" viewBox="0 0 183.65 39.344">
  <defs>
    <clipPath id="clip-path">
      <rect id="Rectangle_2764" data-name="Rectangle 2764" width="39.516" height="39.344" transform="translate(0 0)" fill="none"/>
    </clipPath>
  </defs>
  <g id="navbar-logo" transform="translate(-176.783 -36)">
    <path id="Path_167052" data-name="Path 167052" d="M-57.893,0h-6.094l-1.395-12h4.969l.164,7.688a9.709,9.709,0,0,1-.07,1.242h.07l.4-1.125.445-1.184L-56.686-12h5.414Zm17.787-8.707A3.275,3.275,0,0,1-42-5.637a13.8,13.8,0,0,1-5.83,1.125v.094a1.2,1.2,0,0,0,.574,1.061,2.74,2.74,0,0,0,1.535.381,8.9,8.9,0,0,0,2.057-.293,9.045,9.045,0,0,0,1.975-.691l-.691,3.27A10.044,10.044,0,0,1-44.6.018a12.613,12.613,0,0,1-2.607.275,5.6,5.6,0,0,1-3.961-1.336A4.74,4.74,0,0,1-52.609-4.7a7.874,7.874,0,0,1,.99-3.891,6.882,6.882,0,0,1,2.73-2.742,8.167,8.167,0,0,1,4.014-.961,5.82,5.82,0,0,1,3.521.926A3.111,3.111,0,0,1-40.105-8.707Zm-4.605-.023a.763.763,0,0,0-.158-.469.654.654,0,0,0-.557-.211,1.8,1.8,0,0,0-1.354.6,3.232,3.232,0,0,0-.768,1.688,4.507,4.507,0,0,0,2.08-.4A1.288,1.288,0,0,0-44.711-8.73Zm14.811.6a3.732,3.732,0,0,0-2.062-.5,3.086,3.086,0,0,0-2.3.973,3.317,3.317,0,0,0-.943,2.4q0,1.9,1.992,1.9a5.3,5.3,0,0,0,1.254-.17,5.038,5.038,0,0,0,1.242-.475L-31.412-.6A7.349,7.349,0,0,1-33.257.07a8.883,8.883,0,0,1-1.928.223,4.974,4.974,0,0,1-3.662-1.318,4.877,4.877,0,0,1-1.33-3.627A7.645,7.645,0,0,1-39.164-8.52a7.227,7.227,0,0,1,2.818-2.771,8.234,8.234,0,0,1,4.066-1,7.1,7.1,0,0,1,3.187.633Zm9.772-.41h-2.7l-.691,3.258a6.083,6.083,0,0,0-.164,1.207q0,.715.832.715a4.773,4.773,0,0,0,1.605-.328l-.715,3.457a8.064,8.064,0,0,1-1.564.369,11.935,11.935,0,0,1-1.822.158q-3.457,0-3.457-3.27a7.36,7.36,0,0,1,.158-1.254q.158-.832.9-4.312h-1.816L-28.73-12h1.711l.574-2.766,5.2-1.2L-22.074-12H-19.3Zm13.4,1.535A7.922,7.922,0,0,1-7.667-3.17,6.1,6.1,0,0,1-10.3-.568a8.6,8.6,0,0,1-3.961.861A6.118,6.118,0,0,1-18.554-1.1a5.049,5.049,0,0,1-1.518-3.914,8.084,8.084,0,0,1,.539-2.895,6.714,6.714,0,0,1,1.5-2.385,6.385,6.385,0,0,1,2.361-1.482,9.241,9.241,0,0,1,3.205-.516,6.047,6.047,0,0,1,4.242,1.377A5.039,5.039,0,0,1-6.724-7.008Zm-4.969,0a1.878,1.878,0,0,0-.34-1.213,1.119,1.119,0,0,0-.914-.416,1.515,1.515,0,0,0-1.125.5,3.426,3.426,0,0,0-.756,1.371,5.944,5.944,0,0,0-.275,1.8,1.806,1.806,0,0,0,.346,1.2,1.163,1.163,0,0,0,.932.4,1.748,1.748,0,0,0,1.547-1.031A5.238,5.238,0,0,0-11.693-7.008ZM3.6-7.723H3.575A2.816,2.816,0,0,0,2.3-8.016a2.783,2.783,0,0,0-1.975.7A4.67,4.67,0,0,0-.819-4.9L-1.851,0H-6.843l1.629-7.652A43,43,0,0,0-4.464-12H.446q-.129,1.137-.3,2.309H.188A5.951,5.951,0,0,1,1.683-11.66a2.932,2.932,0,0,1,1.869-.633,4.442,4.442,0,0,1,1.055.152Zm13.6-7.641a2.254,2.254,0,0,1-.814,1.8,3.192,3.192,0,0,1-2.139.691,2.884,2.884,0,0,1-1.91-.615,1.925,1.925,0,0,1-.738-1.541,2.277,2.277,0,0,1,.82-1.822,3.215,3.215,0,0,1,2.156-.7,2.884,2.884,0,0,1,1.887.6A1.939,1.939,0,0,1,17.2-15.363ZM13.357.293a3.976,3.976,0,0,1-2.777-.926A3.163,3.163,0,0,1,9.56-3.094a8.447,8.447,0,0,1,.246-1.828L11.341-12h4.992L14.868-5.086a3.963,3.963,0,0,0-.117.914q0,.668.809.668A3.277,3.277,0,0,0,16.884-3.8L16.111-.164a4.817,4.817,0,0,1-1.066.311A8.616,8.616,0,0,1,13.357.293Zm13.4-8.426a3.732,3.732,0,0,0-2.062-.5,3.086,3.086,0,0,0-2.3.973,3.317,3.317,0,0,0-.943,2.4q0,1.9,1.992,1.9a5.3,5.3,0,0,0,1.254-.17,5.038,5.038,0,0,0,1.242-.475L25.249-.6A7.349,7.349,0,0,1,23.4.07a8.883,8.883,0,0,1-1.928.223,4.974,4.974,0,0,1-3.662-1.318,4.877,4.877,0,0,1-1.33-3.627A7.645,7.645,0,0,1,17.5-8.52a7.227,7.227,0,0,1,2.818-2.771,8.234,8.234,0,0,1,4.066-1,7.1,7.1,0,0,1,3.188.633ZM40.646-7.008A7.922,7.922,0,0,1,39.7-3.17a6.1,6.1,0,0,1-2.631,2.6,8.6,8.6,0,0,1-3.961.861A6.118,6.118,0,0,1,28.816-1.1,5.049,5.049,0,0,1,27.3-5.016a8.084,8.084,0,0,1,.539-2.895,6.714,6.714,0,0,1,1.5-2.385A6.385,6.385,0,0,1,31.7-11.777a9.241,9.241,0,0,1,3.205-.516,6.047,6.047,0,0,1,4.242,1.377A5.039,5.039,0,0,1,40.646-7.008Zm-4.969,0a1.878,1.878,0,0,0-.34-1.213,1.119,1.119,0,0,0-.914-.416,1.515,1.515,0,0,0-1.125.5,3.426,3.426,0,0,0-.756,1.371,5.944,5.944,0,0,0-.275,1.8,1.806,1.806,0,0,0,.346,1.2,1.163,1.163,0,0,0,.932.4,1.748,1.748,0,0,0,1.547-1.031A5.238,5.238,0,0,0,35.677-7.008Zm19.4-2.332a9.758,9.758,0,0,1-.27,2.039L53.277,0H48.285L49.7-6.645a5.459,5.459,0,0,0,.2-1.207.7.7,0,0,0-.8-.785,1.99,1.99,0,0,0-1.371.838,4.107,4.107,0,0,0-.961,1.893L45.554,0H40.515l1.7-7.969q.41-1.945.7-4.031h4.91a13.521,13.521,0,0,1-.234,2.063h.047a7.373,7.373,0,0,1,2.209-1.723,5.219,5.219,0,0,1,2.35-.633Q55.082-12.293,55.082-9.34Zm10.463.891a10.86,10.86,0,0,0-1.494-.486,6.457,6.457,0,0,0-1.6-.229q-1.078,0-1.078.668a.585.585,0,0,0,.27.533,5.032,5.032,0,0,0,.715.357,9.117,9.117,0,0,1,1.986,1.014,2.8,2.8,0,0,1,.873,1.066A3.708,3.708,0,0,1,65.5-3.984a3.577,3.577,0,0,1-.738,2.232A4.755,4.755,0,0,1,62.615-.246a9.552,9.552,0,0,1-3.41.539,15.09,15.09,0,0,1-2.291-.17,12.6,12.6,0,0,1-1.881-.416l.645-3.445a9.127,9.127,0,0,0,3.7.949q1.465,0,1.465-.762a.649.649,0,0,0-.322-.557,3.372,3.372,0,0,0-.814-.381,5.4,5.4,0,0,1-2.473-1.418,3.256,3.256,0,0,1-.715-2.18,3.615,3.615,0,0,1,.744-2.238A4.472,4.472,0,0,1,59.316-11.8a8.754,8.754,0,0,1,3.088-.492,15.128,15.128,0,0,1,2,.158,15.773,15.773,0,0,1,1.781.322Z" transform="translate(294.244 65)" fill="#fff"/>
    <g id="Group_149268" data-name="Group 149268" transform="translate(176.783 36)">
      <g id="Group_149268-2" data-name="Group 149268" transform="translate(0 0)" clip-path="url(#clip-path)">
        <path id="Path_167047" data-name="Path 167047" d="M24.121,14.528l-5.462,7.358a1.558,1.558,0,0,1-2.724-1.438l6.237-18.04A1.708,1.708,0,0,0,20.557.142h-6.35A9.955,9.955,0,0,0,4.43,8.22L.141,30.569a7.663,7.663,0,0,0,.256,3.9c1.911,5.7,9.577,6.729,13.159,1.9L23.878,22.464a.891.891,0,0,1,1.558.819l-1.125,3.3a4.077,4.077,0,0,0,3.859,5.394h1.307a6.956,6.956,0,0,0,6.881-5.934l.284-1.911.666-4.482.77-5.183c.19-1.215.4-2.428.569-3.646a11.571,11.571,0,0,0,.206-1.765c-.022-1.112-1.389-.87-2.114-.87a15.715,15.715,0,0,0-12.618,6.348" transform="translate(0 -0.096)" fill="#a1dd1d"/>
        <path id="Path_167048" data-name="Path 167048" d="M98.406,2.349l-.335.969a1.2,1.2,0,0,0,1.138,1.6h3.817a2.739,2.739,0,0,0,2.7-2.259,2.247,2.247,0,0,0-2.194-2.64L101.7,0a3.485,3.485,0,0,0-3.3,2.349" transform="translate(-66.242 0)" fill="#a1dd1d"/>
      </g>
    </g>
  </g>
</svg>
